<?xml version="1.0" encoding="UTF-8"?>
<svg version="1.1" xmlns="http://www.w3.org/2000/svg" width="1600" height="407">
<path d="M0 0 C0.75296582 -0.00205263 1.50593165 -0.00410527 2.28171462 -0.0062201 C4.8071112 -0.01187865 7.33245305 -0.01043427 9.85785484 -0.00901413 C11.68589286 -0.01159842 13.51393031 -0.01461176 15.34196699 -0.01801753 C20.36754513 -0.02608326 25.39310898 -0.02787687 30.41869283 -0.028615 C35.83809431 -0.03046629 41.2574884 -0.03801402 46.6768856 -0.04475021 C58.52819673 -0.05833102 70.37950447 -0.06435786 82.23082209 -0.06876087 C89.63119294 -0.07152371 97.03156248 -0.07576115 104.43193245 -0.08026505 C124.92241967 -0.09245737 145.41290584 -0.10275677 165.90339661 -0.10614014 C167.87048149 -0.10646949 167.87048149 -0.10646949 169.87730547 -0.10680549 C171.19182827 -0.10702377 172.50635106 -0.10724204 173.86070788 -0.10746694 C176.52441955 -0.1079104 179.18813121 -0.10835697 181.85184288 -0.10880661 C182.51228661 -0.108916 183.17273034 -0.10902539 183.85318751 -0.1091381 C205.92937545 -0.11288085 228.00552637 -0.13015313 250.08170088 -0.15416613 C272.06295134 -0.17788284 294.04418473 -0.19034213 316.0254482 -0.19150805 C328.36657145 -0.19242463 340.70765034 -0.19817267 353.04876137 -0.21632767 C363.55771394 -0.23173293 374.06660846 -0.23684657 384.57557018 -0.22858956 C389.9359976 -0.22468461 395.2963081 -0.22560526 400.65672112 -0.23964691 C405.56820036 -0.25239476 410.47947494 -0.25118045 415.39095394 -0.2390562 C417.16352207 -0.23710075 418.93610474 -0.24017058 420.70865245 -0.24890056 C438.33367214 -0.33017873 452.86610673 2.27153255 466.10330772 14.80330276 C479.92163988 29.0519636 481.5207858 44.63773903 481.49483299 63.7360878 C481.49823133 65.58900349 481.49823133 65.58900349 481.50169832 67.47935182 C481.50690725 70.88249359 481.50768772 74.28558223 481.50650394 77.68872416 C481.50629886 81.36917342 481.51182888 85.04961497 481.51656151 88.73006058 C481.52484562 95.93137535 481.52761534 103.13268194 481.52817389 110.33400109 C481.52865013 116.19175871 481.53071028 122.04951365 481.53387451 127.90727043 C481.54267513 144.53947647 481.54729484 161.17167608 481.54654404 177.80388447 C481.5464841 179.14708163 481.5464841 179.14708163 481.54642296 180.51741409 C481.54636164 181.862264 481.54636164 181.862264 481.54629908 183.23428259 C481.54589282 197.75704272 481.55545882 212.27977691 481.56956133 226.80252954 C481.58394967 241.7382943 481.59083015 256.67404642 481.58996755 271.60981828 C481.58963642 279.98547831 481.59234656 288.36111114 481.6031456 296.73676491 C481.61228303 303.86901728 481.61439937 311.00123011 481.60763618 318.13348582 C481.60438721 321.76674435 481.604255 325.39992716 481.61298943 329.03317833 C481.71319151 373.57325226 481.71319151 373.57325226 467.36112022 390.13142776 C455.88888506 401.31828395 442.54538583 405.30264191 426.89882469 405.74834061 C425.7340475 405.78595627 424.5692703 405.82357193 423.36919683 405.86232746 C406.80279959 406.336112 390.22767532 406.27344038 373.65608823 406.26215243 C368.65628516 406.25985779 363.65648535 406.26339767 358.65668297 406.26613235 C348.90463415 406.2705447 339.1525931 406.26963438 329.400544 406.26671971 C321.4736594 406.26444964 313.54677695 406.26416006 305.61989212 406.26524353 C303.91956627 406.26547338 303.91956627 406.26547338 302.1848904 406.26570787 C299.8813936 406.26602763 297.57789679 406.26635184 295.27439999 406.26668046 C273.75507241 406.26952144 252.23574912 406.26626899 230.71642225 406.2608801 C212.27140733 406.2564042 193.8263987 406.25719713 175.3813839 406.26179886 C153.90913077 406.2671534 132.43688138 406.26925642 110.96462768 406.26618659 C108.67478907 406.26586807 106.38495046 406.2655537 104.09511185 406.26524353 C102.96871574 406.26508925 101.84231963 406.26493498 100.68179031 406.26477603 C92.76124033 406.2639142 84.84069274 406.26536637 76.92014313 406.26772308 C67.27359114 406.27053064 57.62704729 406.26976225 47.98049624 406.26444234 C43.06349542 406.26181966 38.14650815 406.26077609 33.22950745 406.26409149 C28.72416757 406.26708342 24.21885376 406.26541364 19.71351623 406.26011394 C18.08895254 406.2590022 16.46438663 406.25955316 14.83982439 406.26198973 C-4.10365503 406.28821064 -19.49460865 405.7796542 -34.63887978 393.13142776 C-35.29759071 392.58615433 -35.95630165 392.04088089 -36.63497353 391.47908401 C-45.92183905 383.01955618 -50.83615313 371.31952537 -51.91767776 358.94027531 C-52.02526894 355.49940629 -52.04378281 352.06992619 -52.02655983 348.6274147 C-52.03194537 347.31959721 -52.03733091 346.01177971 -52.04287964 344.66433138 C-52.05722716 341.06796493 -52.05312343 337.47182973 -52.04571283 333.87545121 C-52.04095676 329.98374018 -52.05351238 326.09207746 -52.06373024 322.20038223 C-52.08087558 314.58957539 -52.0817672 306.97885127 -52.07651734 299.36803014 C-52.07246672 293.17896474 -52.07392975 286.98992369 -52.07926559 280.80085945 C-52.08001402 279.91812313 -52.08076244 279.03538681 -52.08153354 278.12590091 C-52.0830651 276.33231381 -52.08460345 274.53872673 -52.08614851 272.74513965 C-52.09985791 255.94755143 -52.09444666 239.15000985 -52.0829633 222.35242271 C-52.07303079 207.00392124 -52.08597466 191.65554032 -52.10989749 176.30705745 C-52.13431164 160.52371904 -52.14389078 144.74043673 -52.13724476 128.95707983 C-52.13375791 120.10529444 -52.13594934 111.25360173 -52.15349579 102.40183067 C-52.16824669 94.86731816 -52.1688155 87.33296363 -52.15142488 79.79845411 C-52.14293652 75.95878103 -52.1407119 72.11938983 -52.15607643 68.27973175 C-52.17256605 64.10706955 -52.15772195 59.93508199 -52.14008522 55.76242447 C-52.14969023 54.56337339 -52.15929523 53.36432231 -52.1691913 52.12893635 C-52.04008164 37.22177909 -47.03377217 24.70681299 -36.82637978 13.81892776 C-26.41558593 4.01107565 -14.11683871 -0.03603809 0 0 Z M70.36112022 78.13142776 C69.34404991 78.70892776 68.3269796 79.28642776 67.27908897 79.88142776 C61.50728817 83.3687256 56.55668821 87.39881108 51.65018272 92.01814651 C49.36112022 94.13142776 49.36112022 94.13142776 46.78299522 96.17439651 C22.11173478 116.11036665 12.8307877 152.73529298 9.57500267 182.73804092 C9.23762825 186.51332736 9.16022999 190.2763803 9.12283897 194.06502151 C9.11304512 194.89218674 9.10325127 195.71935196 9.09316063 196.57158279 C8.71213465 237.12630881 13.84635005 274.89769353 40.36112022 307.13142776 C40.80512169 307.68000443 41.24912315 308.22858109 41.70657921 308.79378128 C61.94211485 333.55160906 94.31661738 345.95922162 125.36112022 349.13142776 C127.81828513 349.21791183 130.27743959 349.26176113 132.73612022 349.25642776 C133.9401046 349.25900589 135.14408897 349.26158401 136.38455772 349.26424026 C139.28926657 349.33689623 139.28926657 349.33689623 141.36112022 348.13142776 C142.29582908 342.74593583 142.50981647 337.445497 142.49393272 331.98299026 C142.49488945 331.24438766 142.49584618 330.50578506 142.49683189 329.74480057 C142.49750675 328.20033558 142.49570142 326.65586763 142.49149132 325.11140823 C142.48608667 322.74171566 142.4914833 320.37220865 142.49783897 318.00252151 C142.49717897 316.49601068 142.49589942 314.98949996 142.49393272 313.48299026 C142.49696907 312.42055603 142.49696907 312.42055603 142.50006676 311.33665848 C142.53601589 307.60942198 142.53601589 307.60942198 141.36112022 304.13142776 C139.47548811 303.74517769 139.47548811 303.74517769 137.19705772 303.67439651 C135.89538658 303.58786819 135.89538658 303.58786819 134.56741905 303.49959183 C133.63309044 303.43997269 132.69876183 303.38035355 131.73612022 303.31892776 C119.03297473 302.29811044 108.22949075 299.5444026 97.41190147 292.46345901 C95.39510317 291.07845926 95.39510317 291.07845926 93.15408897 290.14314651 C91.36112022 289.13142776 91.36112022 289.13142776 90.36112022 286.13142776 C89.70112022 286.13142776 89.04112022 286.13142776 88.36112022 286.13142776 C88.36112022 285.47142776 88.36112022 284.81142776 88.36112022 284.13142776 C87.21286018 283.01796348 86.06450996 281.90459211 84.91580772 280.79158401 C71.07656094 266.01349385 65.8372637 245.71023663 63.36112022 226.13142776 C63.25026085 225.31674026 63.13940147 224.50205276 63.02518272 223.66267776 C61.29511733 208.51291589 62.04248 193.16322958 64.36112022 178.13142776 C64.46295616 177.44032913 64.5647921 176.7492305 64.66971397 176.03718948 C66.05993451 166.82268763 68.32865519 158.58303256 72.36112022 150.13142776 C72.84194054 149.01123245 73.32276085 147.89103714 73.81815147 146.73689651 C81.23703664 130.36480687 94.51702596 117.54558173 111.40799522 111.09236526 C121.273755 107.88207835 130.90367738 107.78501794 141.36112022 107.13142776 C141.36112022 91.95142776 141.36112022 76.77142776 141.36112022 61.13142776 C115.90933174 61.13142776 92.59901473 65.492398 70.36112022 78.13142776 Z M171.36112022 61.13142776 C171.36112022 80.60142776 171.36112022 100.07142776 171.36112022 120.13142776 C217.56112022 120.13142776 263.76112022 120.13142776 311.36112022 120.13142776 C310.37112022 136.96142776 309.38112022 153.79142776 308.36112022 171.13142776 C308.12263282 183.12827924 307.92522888 195.07961848 307.98026085 207.07167435 C307.98819815 210.11587835 307.9733386 213.15983257 307.95968533 216.20400333 C306.89753669 279.92685433 306.89753669 279.92685433 333.11112022 335.50642776 C345.11871578 346.54974222 360.44469473 348.92348307 376.21268272 348.41658401 C387.06082382 347.81446936 398.84385607 345.51076031 406.86112022 337.69392776 C411.88089142 329.11848531 411.52378786 319.33056583 411.48612022 309.69392776 C411.48998741 308.70843948 411.4938546 307.7229512 411.49783897 306.70759964 C411.86281473 294.99371726 411.86281473 294.99371726 408.36112022 284.13142776 C404.04902248 282.65562961 401.35468538 283.58326235 397.17362022 285.13142776 C389.72013027 287.55971409 384.33016369 287.70406763 377.04862022 284.81892776 C362.21403794 269.98434548 364.03778221 236.5251806 363.11112022 216.88142776 C363.04274956 215.46721542 363.04274956 215.46721542 362.97299767 214.02443314 C361.80872345 188.49841937 362.93141743 162.97927554 364.00519371 137.46818924 C364.24617929 131.68270445 364.41871557 125.92197555 364.36112022 120.13142776 C365.30954796 120.15237503 366.25797569 120.1733223 367.23514366 120.19490433 C370.76128447 120.26316336 374.28672121 120.31326705 377.81326866 120.35115433 C379.33812108 120.37124376 380.8628967 120.39852092 382.38748741 120.43318558 C384.58201621 120.48182572 386.77552491 120.50442173 388.97049522 120.52205276 C390.29017296 120.54300003 391.60985069 120.5639473 392.96951866 120.58552933 C396.37590936 120.39958543 396.37590936 120.39958543 398.71487999 118.44466019 C404.28475614 110.61808795 403.80389248 99.76614871 403.67362022 90.56892776 C403.67684288 89.42746292 403.68006554 88.28599808 403.68338585 87.10994339 C403.90936536 74.6448733 403.90936536 74.6448733 399.36112022 63.50642776 C395.20474861 60.64892228 391.51363771 60.99469731 386.61670494 61.01117325 C385.24206807 61.00989161 385.24206807 61.00989161 383.83966076 61.00858408 C380.75027748 61.00692902 377.66094777 61.01245109 374.57156944 61.01790237 C372.36440596 61.01818427 370.15724239 61.01802647 367.95007896 61.01745987 C361.94211638 61.01717197 355.93417361 61.02306744 349.92621565 61.03003383 C343.65347041 61.03626867 337.38072477 61.03687127 331.10797691 61.03805923 C320.57435328 61.04081808 310.04073616 61.04707195 299.50711632 61.05598831 C288.65620523 61.06516372 277.80529612 61.07224392 266.95438194 61.07649612 C266.28582038 61.07675885 265.61725882 61.07702157 264.92843781 61.07729226 C261.57454713 61.07859727 258.22065644 61.07986098 254.86676574 61.08110416 C227.03154431 61.09156768 199.19633545 61.10991269 171.36112022 61.13142776 Z M201.36112022 134.13142776 C200.51391333 147.48285883 200.51391333 147.48285883 200.15018272 160.82283401 C200.12450265 162.7565195 200.09802221 164.69019449 200.07083702 166.62385941 C200.05757378 167.61354721 200.04431053 168.60323502 200.03064537 169.62291336 C199.2377391 224.31170749 194.77068369 280.90273738 177.36112022 333.13142776 C177.09039028 335.54425466 177.09039028 335.54425466 177.04862022 338.13142776 C177.01123741 338.99767776 176.9738546 339.86392776 176.93533897 340.75642776 C177.13332879 343.24178164 177.13332879 343.24178164 179.0779171 344.70662308 C186.39217543 349.27099558 196.73443426 348.44185795 205.04862022 348.38142776 C206.12434288 348.38916214 207.20006554 348.39689651 208.30838585 348.40486526 C216.7874717 348.38409592 223.88071814 348.20409024 230.36112022 342.13142776 C234.93797376 333.61186306 236.87816076 323.76864872 238.86112022 314.38142776 C239.00697563 313.70277664 239.15283104 313.02412552 239.30310631 312.32490921 C244.5768274 287.70969388 249.83812294 261.54120369 249.2876339 236.31087112 C249.36112022 234.13142776 249.36112022 234.13142776 250.36112022 231.13142776 C250.58644514 228.61119547 250.76251376 226.10990202 250.89627647 223.58455276 C250.96087814 222.41528748 250.96087814 222.41528748 251.0267849 221.22240067 C251.16640536 218.60906397 251.29627499 215.99539035 251.42362022 213.38142776 C251.46847557 212.48313248 251.51333092 211.58483719 251.55954552 210.65932083 C252.79637868 185.1552957 252.4894099 159.66107326 252.36112022 134.13142776 C235.53112022 134.13142776 218.70112022 134.13142776 201.36112022 134.13142776 Z " fill="#008DD1" transform="translate(51.63887977600098,0.8685722351074219)"/>
<path d="M0 0 C26.73 0 53.46 0 81 0 C81.02202508 50.81322053 81.04049705 101.62643658 81.05106533 152.43966052 C81.05231611 158.43186027 81.05361043 164.42406002 81.05493164 170.41625977 C81.05532511 172.20574924 81.05532511 172.20574924 81.05572652 174.03139002 C81.06008373 193.37532992 81.06797155 212.71926686 81.0771528 232.063205 C81.08648794 251.89605728 81.09205531 271.728908 81.09408849 291.56176239 C81.09546401 303.81023338 81.09981616 316.05869602 81.10791647 328.30716444 C81.11318221 336.69419234 81.11480469 345.08121589 81.11350138 353.46824532 C81.11285773 358.31483767 81.11387854 363.16141537 81.11920547 368.00800514 C81.12403857 372.43736091 81.12433924 376.86669204 81.12089889 381.29604889 C81.12047311 382.90574697 81.1217696 384.51544654 81.12488318 386.12514167 C81.1288458 388.29866581 81.12676426 390.47209882 81.12304783 392.6456213 C81.12342755 393.85730887 81.12380727 395.06899645 81.1241985 396.31740183 C81 399 81 399 80 400 C78.16122135 400.1357708 76.31725664 400.20185228 74.47387695 400.24047852 C72.7011718 400.27909752 72.7011718 400.27909752 70.89265442 400.3184967 C65.46831032 400.40242366 60.04415127 400.46860081 54.61938477 400.51489258 C51.75629193 400.54160796 48.89487103 400.59028124 46.0324707 400.65844727 C42.57517376 400.74057237 39.11946472 400.78310183 35.66124535 400.79795647 C33.70776279 400.81610906 31.75477561 400.87374123 29.80207825 400.93202209 C21.1265007 400.91301694 21.1265007 400.91301694 17.82089233 398.2338562 C14 393.30873454 14 393.30873454 14 390 C13.175 390.51949219 12.35 391.03898437 11.5 391.57421875 C-0.45639557 398.87525925 -13.5183632 404.11608178 -27.73828125 404.1328125 C-28.80626953 404.13410156 -29.87425781 404.13539063 -30.97460938 404.13671875 C-32.07611328 404.13285156 -33.17761719 404.12898438 -34.3125 404.125 C-35.40240234 404.12886719 -36.49230469 404.13273437 -37.61523438 404.13671875 C-57.69364334 404.11257154 -74.71586744 398.43464853 -90.77734375 386.2265625 C-92 385 -92 385 -92 383 C-92.66 383 -93.32 383 -94 383 C-110.50091865 365.69760815 -107.16173949 338.54692024 -107.0534668 316.56860352 C-107.04657893 314.376929 -107.04013228 312.18525306 -107.03408813 309.99357605 C-107.01633523 304.09737012 -106.99176044 298.20121236 -106.96532798 292.30503964 C-106.9436882 287.36683326 -106.92510717 282.42861703 -106.90639621 277.49039882 C-106.86206847 265.84131163 -106.81180625 254.1922601 -106.75805664 242.54321289 C-106.70284041 230.54839885 -106.6588828 218.5535966 -106.62020558 206.55872017 C-106.5864305 196.22787624 -106.54510472 185.89708053 -106.49788028 175.56628937 C-106.46984823 169.40977899 -106.44477102 163.25329259 -106.4272213 157.09674263 C-106.41045759 151.31404075 -106.38425822 145.53145627 -106.35091019 139.74882698 C-106.34027989 137.63293369 -106.33295035 135.51702072 -106.32924461 133.40110397 C-106.2896468 112.92480094 -106.2896468 112.92480094 -104 104 C-103.81351741 103.24915414 -103.62703482 102.49830828 -103.43490124 101.72470951 C-103.29138383 101.15555537 -103.14786642 100.58640123 -103 100 C-102.34 100 -101.68 100 -101 100 C-100.835 99.175 -100.67 98.35 -100.5 97.5 C-96.19848792 87.46313847 -85.60817407 81.64491755 -75.8671875 77.74609375 C-52.92342001 70.10756674 -25.66492361 70.78343848 -3.7956543 81.58227539 C-2.87308838 82.05012451 -1.95052246 82.51797363 -1 83 C-1.00523682 82.04899414 -1.01047363 81.09798828 -1.01586914 80.11816406 C-1.14889969 53.391634 -0.68293931 26.72000064 0 0 Z M-22 128 C-25.27901135 132.20323768 -25.43345621 136.06323189 -25.40545654 141.2026825 C-25.41280894 142.02477654 -25.42016133 142.84687058 -25.42773652 143.69387656 C-25.44871789 146.44666683 -25.44844226 149.19904015 -25.44824219 151.9519043 C-25.45889661 153.92654632 -25.47084586 155.90118172 -25.48399353 157.87580872 C-25.51588855 163.23965478 -25.52924496 168.60340462 -25.53904247 173.96733069 C-25.55214797 179.58412614 -25.58129052 185.20083939 -25.60845947 190.81758118 C-25.65178319 200.25556785 -25.68388456 209.69353865 -25.70849609 219.1315918 C-25.74010577 231.22952878 -25.79031409 243.32731329 -25.84641647 255.4251585 C-25.89453385 265.83887442 -25.9337839 276.25262119 -25.97177219 286.66637826 C-25.98435436 290.00623955 -25.99819674 293.34609385 -26.01222992 296.68594933 C-26.03379011 301.94639215 -26.04979542 307.206825 -26.06158638 312.46729851 C-26.06667392 314.39333898 -26.07349055 316.31937581 -26.08220482 318.24540329 C-27.30154894 335.71674979 -27.30154894 335.71674979 -21 351 C-17.06916247 353.65909598 -12.92033705 353.17217606 -8.37890625 352.6171875 C-4.8545548 351.70282374 -3.15565274 349.85102459 -1 347 C0.6070846 343.78583079 0.14796984 340.28266432 0.14717102 336.75152588 C0.15084771 335.88833732 0.1545244 335.02514877 0.1583125 334.13580298 C0.1693776 331.22627159 0.17319796 328.31677588 0.17700195 325.40722656 C0.18326446 323.32802211 0.18991107 321.24881879 0.19691467 319.1696167 C0.214344 313.50835969 0.22488166 307.84711114 0.2331202 302.18583393 C0.23826617 298.65098485 0.24434208 295.11613842 0.25063133 291.5812912 C0.26968863 280.52774529 0.28391873 269.47420609 0.2922433 258.42064691 C0.30201928 245.64973424 0.32834606 232.87899473 0.36874419 220.10814309 C0.3988771 210.24481947 0.41370949 200.38154556 0.41702431 190.51817679 C0.41937799 184.62363497 0.42837981 178.72927802 0.45348549 172.83478546 C0.47672175 167.28948837 0.48101726 161.74449845 0.47072411 156.19916534 C0.47022756 154.16340108 0.47658294 152.12762193 0.49028015 150.09190369 C0.50793194 147.31303527 0.50092598 144.53527726 0.48774719 141.75640869 C0.49871644 140.95036894 0.50968568 140.14432919 0.52098733 139.31386399 C0.46126694 134.09971108 -0.543555 131.13059692 -4 127 C-9.68753576 123.20830949 -16.45635395 124.1722444 -22 128 Z " fill="#008DD2" transform="translate(1209,3)"/>
<path d="M0 0 C0.88059586 -0.00570007 1.76119171 -0.01140015 2.66847229 -0.01727295 C4.52660949 -0.02667204 6.38476298 -0.03323653 8.24291992 -0.03710938 C11.02749369 -0.04674041 13.81130431 -0.07778179 16.59570312 -0.109375 C40.60258382 -0.25217371 67.30674913 3.79096579 85.46386719 20.81835938 C90.12290327 25.43083614 93.55082362 30.44468952 96.62890625 36.203125 C97.22445312 37.27433594 97.22445312 37.27433594 97.83203125 38.3671875 C104.32544068 51.30554808 104.04838147 65.95448687 103.921875 80.04296875 C103.91626438 81.90482742 103.91200124 83.76669058 103.90901184 85.6285553 C103.89767828 90.47660021 103.86831319 95.32436596 103.8348999 100.17230225 C103.79848503 106.01706933 103.78498304 111.86193091 103.76753998 117.70677948 C103.73866647 126.5390875 103.68109998 135.37078566 103.62890625 144.203125 C76.89890625 144.203125 50.16890625 144.203125 22.62890625 144.203125 C21.50444114 131.83400876 21.50444114 131.83400876 21.54711914 125.50024414 C21.5501857 124.81255951 21.55325226 124.12487488 21.55641174 123.41635132 C21.56347302 121.94870338 21.57281068 120.4810648 21.58430672 119.0134449 C21.60193993 116.68851719 21.61206965 114.36366029 21.620224 112.03868103 C21.64448333 105.43742209 21.68046767 98.83626074 21.72485352 92.23510742 C21.75162825 88.17648878 21.76866998 84.11792311 21.77972221 80.05923271 C21.78592043 78.5190476 21.79591128 76.97887282 21.8098011 75.43873787 C21.82901429 73.29250406 21.83591157 71.14655235 21.84008789 69.00024414 C21.84754532 67.78099747 21.85500275 66.56175079 21.86268616 65.30555725 C21.63715688 62.31261698 21.36742827 60.62766732 19.62890625 58.203125 C16.57784275 57.18610383 14.38691564 57.03730417 11.19140625 57.015625 C10.24394531 57.00144531 9.29648437 56.98726562 8.3203125 56.97265625 C5.45991199 57.21759621 4.00960448 57.62940245 1.62890625 59.203125 C-1.06204161 65.72676883 -0.65391314 73.53681587 -0.61833191 80.47473145 C-0.62074632 81.56652852 -0.62316074 82.65832559 -0.62564832 83.78320742 C-0.63125576 87.41868468 -0.62264447 91.05398392 -0.61401367 94.68945312 C-0.61508729 97.30521187 -0.61702715 99.92097038 -0.61976624 102.53672791 C-0.62479108 108.8901512 -0.61918817 115.24352218 -0.60991593 121.59693897 C-0.599497 129.00422493 -0.59960306 136.41149978 -0.60008851 143.81879169 C-0.60058845 157.04017551 -0.59144633 170.26153508 -0.5769043 183.48291016 C-0.56281831 196.29639121 -0.5557336 209.10985094 -0.55639648 221.92333984 C-0.55643644 222.7125864 -0.5564764 223.50183295 -0.55651756 224.31499606 C-0.55655792 225.10291197 -0.55659827 225.89082788 -0.55663985 226.70262003 C-0.55733076 241.31320248 -0.55143355 255.92377591 -0.54248663 270.53435543 C-0.53947773 275.69095913 -0.53840796 280.84756117 -0.53795433 286.00416565 C-0.53719858 292.95138599 -0.53082888 299.89858358 -0.52078819 306.84579659 C-0.51787303 309.39266892 -0.51663583 311.93954383 -0.51721573 314.48641777 C-0.5177084 317.96814157 -0.51203132 321.44980341 -0.50480652 324.93151855 C-0.50712942 326.43591893 -0.50712942 326.43591893 -0.50949925 327.97071123 C-0.4885433 334.10461408 -0.09893287 340.1123319 0.62890625 346.203125 C6.74169089 348.19913631 11.80487581 349.35365592 18.00390625 346.828125 C20.71566967 345.46718759 20.71566967 345.46718759 21.62890625 343.203125 C21.71823093 341.86442218 21.74649626 340.52136094 21.74243164 339.1796875 C21.74236115 338.33841309 21.74229065 337.49713867 21.74221802 336.63037109 C21.7370517 335.70562988 21.73188538 334.78088867 21.7265625 333.828125 C21.72510223 332.85568848 21.72364197 331.88325195 21.72213745 330.88134766 C21.71832546 328.76529434 21.71220263 326.64924425 21.70407104 324.53320312 C21.69135175 321.1887956 21.68480328 317.84442755 21.67993164 314.5 C21.66847985 307.40102402 21.64923682 300.30208039 21.62890625 293.203125 C21.60535568 284.97982008 21.584946 276.75653375 21.57296753 268.53320312 C21.56646008 265.2304437 21.55395163 261.92774063 21.54125977 258.625 C21.53762869 256.60937551 21.53427678 254.59375049 21.53125 252.578125 C21.52608368 251.65338379 21.52091736 250.72864258 21.51559448 249.77587891 C21.51552399 248.93460449 21.51545349 248.09333008 21.51538086 247.2265625 C21.51316025 246.49356934 21.51093964 245.76057617 21.50865173 245.00537109 C21.62890625 243.203125 21.62890625 243.203125 22.62890625 241.203125 C49.35890625 241.203125 76.08890625 241.203125 103.62890625 241.203125 C104.7539948 249.07874487 104.7539948 249.07874487 104.76261902 252.47460938 C104.76901649 253.63030174 104.76901649 253.63030174 104.77554321 254.80934143 C104.77509003 255.63022751 104.77463684 256.45111359 104.77416992 257.296875 C104.77752853 258.18088486 104.78088715 259.06489471 104.78434753 259.97569275 C104.79380878 262.88485134 104.79579864 265.793952 104.796875 268.703125 C104.80009242 270.74226911 104.80345685 272.781413 104.80696106 274.82055664 C104.81294136 279.09408095 104.81480224 283.36758508 104.81420898 287.64111328 C104.81410777 293.07971533 104.82772285 298.51818564 104.84498119 303.95675659 C104.8561815 308.17104672 104.85812569 312.3853059 104.85759926 316.59960938 C104.85876874 318.60238089 104.86313153 320.60515349 104.87093163 322.60791016 C105.00677814 361.11092627 105.00677814 361.11092627 91.62890625 376.203125 C90.99339844 376.93144531 90.35789062 377.65976562 89.703125 378.41015625 C83.83290262 384.70964535 77.22401423 389.20397919 69.62890625 393.203125 C68.96890625 393.203125 68.30890625 393.203125 67.62890625 393.203125 C67.29890625 393.863125 66.96890625 394.523125 66.62890625 395.203125 C63.86617618 396.60531254 60.91333182 397.58280447 58.00390625 398.640625 C56.72132935 399.10976318 56.72132935 399.10976318 55.4128418 399.58837891 C47.91851796 402.24803752 40.5044075 404.02497176 32.62890625 405.203125 C31.47132813 405.38746094 30.31375 405.57179688 29.12109375 405.76171875 C22.75977976 406.52650851 16.33897637 406.40184729 9.94140625 406.390625 C9.25527252 406.38968842 8.56913879 406.38875183 7.86221313 406.38778687 C-12.79865927 406.32681553 -33.41771164 405.29202307 -52.37109375 396.203125 C-52.70109375 395.543125 -53.03109375 394.883125 -53.37109375 394.203125 C-54.24507812 393.99042969 -54.24507812 393.99042969 -55.13671875 393.7734375 C-65.19404401 391.20635798 -74.90536062 380.51852647 -80.33984375 372.12109375 C-81.37109375 370.203125 -81.37109375 370.203125 -81.37109375 368.203125 C-82.03109375 368.203125 -82.69109375 368.203125 -83.37109375 368.203125 C-86.61699496 360.13792772 -88.762112 352.45658359 -89.51799011 343.79438782 C-89.59939812 342.8917625 -89.68080613 341.98913718 -89.76468104 341.05915958 C-90.72224603 329.36350371 -90.65906732 317.6569359 -90.64575195 305.93041992 C-90.65011014 303.36218113 -90.65529693 300.79394363 -90.66123962 298.22570801 C-90.67386039 292.02886869 -90.67579665 285.83207294 -90.67343936 279.63522293 C-90.67164319 274.59342758 -90.67343333 269.55164526 -90.6776638 264.50985146 C-90.67825899 263.7873963 -90.67885418 263.06494115 -90.67946741 262.32059342 C-90.68067935 260.85218634 -90.68189349 259.38377925 -90.68310978 257.91537217 C-90.69393477 244.20935874 -90.69184577 230.50337005 -90.68572494 216.79735527 C-90.6805496 204.29350639 -90.6918365 191.78973526 -90.71082316 179.28590175 C-90.73024681 166.39397086 -90.73845032 153.50207669 -90.7346999 140.61013108 C-90.73279608 133.39321565 -90.73519577 126.1763665 -90.74941444 118.95946312 C-90.7626444 112.17700689 -90.76000733 105.39473122 -90.74700356 98.61226654 C-90.74464849 96.13401803 -90.74733375 93.65575841 -90.75562668 91.17752266 C-90.82859564 67.66456543 -89.1475573 45.93573064 -73.37109375 27.203125 C-72.85160156 26.57148438 -72.33210937 25.93984375 -71.796875 25.2890625 C-54.5321539 6.24133494 -24.56895322 0.12670522 0 0 Z " fill="#008DD2" transform="translate(685.37109375,-0.203125)"/>
<path d="M0 0 C1.30879372 -0.00639748 1.30879372 -0.00639748 2.64402771 -0.01292419 C4.09218369 -0.01224442 4.09218369 -0.01224442 5.56959534 -0.0115509 C6.58136337 -0.01490952 7.59313141 -0.01826813 8.63555908 -0.02172852 C12.01145127 -0.03129213 15.38729392 -0.033186 18.76319885 -0.03425598 C21.12087016 -0.03747086 23.47854127 -0.0408351 25.83621216 -0.04434204 C30.80561279 -0.05035092 35.77499601 -0.05218074 40.74440002 -0.05158997 C47.03853011 -0.05148961 53.33254412 -0.06500039 59.626647 -0.08236217 C64.51479577 -0.09363413 69.40291814 -0.09550439 74.29107857 -0.09498024 C76.60573276 -0.09614309 78.92038803 -0.10046666 81.23502922 -0.10831261 C156.05674104 -0.33767222 156.05674104 -0.33767222 181.7046051 22.19621277 C191.62880475 32.81224364 195.11249271 48.23343143 196.12550354 62.26017761 C196.20521267 63.29421408 196.2849218 64.32825054 196.36704636 65.39362144 C197.18927482 76.96259013 197.24473333 88.51754993 197.2202301 100.11027527 C197.22158365 102.42223654 197.22352984 104.73419752 197.22602844 107.04615784 C197.2289462 111.84783183 197.22479088 116.64943048 197.21534729 121.45109558 C197.20394193 127.53982846 197.21054083 133.6283851 197.22249222 139.71711159 C197.22979127 144.4772418 197.22738661 149.23733166 197.22223663 153.99746323 C197.22092293 156.24006039 197.22246563 158.48266149 197.22719574 160.72525406 C197.24561168 171.90067146 197.0512473 182.99338514 196.07472229 194.13127136 C195.99885014 195.01222788 195.92297798 195.89318439 195.84480667 196.80083656 C194.62256387 209.27152879 191.2490066 220.47781124 182.9546051 230.13371277 C182.40933167 230.77695496 181.86405823 231.42019714 181.30226135 232.08293152 C171.79140406 242.39941437 157.73362963 247.77807228 144.09913635 249.77433777 C141.91119775 250.03323356 141.91119775 250.03323356 139.9546051 251.13371277 C135.88381575 251.96637423 132.09593929 252.13371277 127.9546051 252.13371277 C127.3886261 252.29742371 126.82264709 252.46113464 126.23951721 252.62980652 C123.00522437 253.34308576 119.81405418 253.23607654 116.52101135 253.19621277 C115.80606003 253.19242615 115.0911087 253.18863953 114.35449219 253.18473816 C111.30665507 253.16844479 108.25895395 253.14031047 105.2111969 253.11320496 C102.98114141 253.09507248 100.75110794 253.08300832 98.52101135 253.07121277 C97.49579124 253.05876526 97.49579124 253.05876526 96.44985962 253.04606628 C93.61697498 253.031612 91.01094539 253.1219931 88.23170471 253.70011902 C85.9546051 254.13371277 85.9546051 254.13371277 81.9546051 253.13371277 C81.9546051 301.64371277 81.9546051 350.15371277 81.9546051 400.13371277 C50.71410288 401.29076841 50.71410288 401.29076841 39.70069885 401.30168152 C38.45627518 401.30500992 37.2118515 401.30833832 35.92971802 401.31176758 C33.36892558 401.31672806 30.80812695 401.31917939 28.24732971 401.3190155 C24.30785687 401.32126079 20.36864025 401.339684 16.42921448 401.35832214 C13.91554355 401.36124684 11.40187131 401.3632378 8.88819885 401.36418152 C7.71454269 401.37136703 6.54088654 401.37855255 5.33166504 401.38595581 C4.25776016 401.38287918 3.18385529 401.37980255 2.07740784 401.37663269 C0.66068031 401.37877022 0.66068031 401.37877022 -0.78466797 401.38095093 C-3.0453949 401.13371277 -3.0453949 401.13371277 -5.0453949 399.13371277 C-5.29494256 396.3344788 -5.29494256 396.3344788 -5.29428387 392.67469692 C-5.29689115 392.0007161 -5.29949844 391.32673528 -5.30218473 390.63233081 C-5.30853053 388.35156565 -5.30049356 386.07107107 -5.29263306 383.79031372 C-5.29421984 382.14762871 -5.29668212 380.50494436 -5.29994947 378.86226183 C-5.30638997 374.33085326 -5.30027406 369.79953343 -5.29218519 365.26813066 C-5.2856287 360.38807084 -5.29055216 355.50802127 -5.29406738 350.62796021 C-5.29911872 341.06132048 -5.29345614 331.49471522 -5.28421708 321.92807978 C-5.27385394 310.79920821 -5.27390271 299.67034417 -5.27438966 288.54146869 C-5.27489073 268.69224522 -5.26571641 248.84303785 -5.25120544 228.99382019 C-5.23711522 209.71028856 -5.23003472 190.4267711 -5.23069763 171.14323425 C-5.23073759 169.95550086 -5.23077754 168.76776747 -5.23081871 167.54404216 C-5.23085907 166.35841068 -5.23089942 165.1727792 -5.230941 163.9512195 C-5.23163 142.03003746 -5.22574586 120.10886147 -5.21678778 98.18768139 C-5.21376529 90.4205506 -5.2127075 82.65342091 -5.21225548 74.8862896 C-5.2115749 65.42839184 -5.207132 55.97050427 -5.19792267 46.51261085 C-5.19329053 41.6822089 -5.19026436 36.85182003 -5.19151688 32.02141571 C-5.19260608 27.6069393 -5.18912954 23.19249188 -5.18186835 18.77802152 C-5.1800442 17.17376829 -5.17993512 15.56951208 -5.18163564 13.96525871 C-5.18367897 11.79909979 -5.17967573 9.63303789 -5.17402935 7.46688747 C-5.17332493 6.25932181 -5.1726205 5.05175614 -5.17189473 3.80759758 C-4.97359286 -0.3839998 -3.79686271 0.0083532 0 0 Z M81.9546051 59.13371277 C81.85830913 60.879978 81.83272972 62.63017182 81.83435059 64.37908936 C81.83297592 65.51637482 81.83160126 66.65366028 81.83018494 67.82540894 C81.83378021 69.08416336 81.83737549 70.34291779 81.84107971 71.63981628 C81.84093369 72.95669434 81.84078766 74.27357239 81.84063721 75.63035583 C81.84034924 79.25209545 81.84624586 82.87380223 81.85321116 86.49553418 C81.8594448 90.27653161 81.86004851 94.05752972 81.86123657 97.83853149 C81.86434986 105.00315567 81.87256321 112.16776466 81.88258606 119.33238214 C81.89374728 127.48702439 81.89925767 135.64166734 81.9042815 143.79631531 C81.91474583 160.5754567 81.93234521 177.3545828 81.9546051 194.13371277 C87.8700112 195.77165643 93.70405565 194.51910449 99.31007385 192.12980652 C104.12205312 189.3942911 107.08132701 186.36131568 108.9546051 181.13371277 C110.032283 174.60927717 110.10342225 167.98609967 110.09986877 161.38883972 C110.10322739 160.4720343 110.106586 159.55522888 110.11004639 158.61064148 C110.11945809 155.61441147 110.12149398 152.61823784 110.12257385 149.62199402 C110.12579131 147.5231321 110.12915575 145.4242704 110.13265991 143.32540894 C110.13862527 138.9420876 110.14050229 134.55878592 110.13990784 130.17546082 C110.13980592 124.56688748 110.15350037 118.9584399 110.17068005 113.34989643 C110.1818068 109.02184471 110.1838269 104.69382345 110.18329811 100.3657589 C110.18447557 98.29776256 110.1888842 96.22976538 110.19663048 94.16178322 C110.20645166 91.27123309 110.20354475 88.38095696 110.19752502 85.49040222 C110.20595428 84.21923805 110.20595428 84.21923805 110.21455383 82.9223938 C110.18828887 77.9473111 109.54893489 73.85316708 107.9546051 69.13371277 C107.2946051 69.13371277 106.6346051 69.13371277 105.9546051 69.13371277 C105.87855042 68.53945496 105.80249573 67.94519714 105.72413635 67.33293152 C104.39734634 63.54114076 101.29722842 62.32110993 97.9389801 60.39933777 C94.29513552 58.85404242 85.1936348 55.89468307 81.9546051 59.13371277 Z " fill="#302255" transform="translate(1311.045394897461,2.8662872314453125)"/>
<path d="M0 0 C12.07394343 11.37952368 17.638266 25.10138969 18.37716103 41.6041851 C18.52267133 46.88116585 18.50032214 52.15686795 18.4777832 57.43530273 C18.48021662 59.45093981 18.48394123 61.46657567 18.48884583 63.48220825 C18.49818383 68.91410481 18.48888909 74.34581893 18.4755137 79.77770114 C18.46411944 85.48901282 18.46831287 91.20031656 18.47026062 96.91163635 C18.47114116 106.50012152 18.46011415 116.08853566 18.44165039 125.67700195 C18.42049258 136.72705413 18.41697312 147.77700232 18.42321235 158.82707065 C18.42892829 169.50097476 18.42323376 180.17484265 18.4120388 190.84874153 C18.40742165 195.37104024 18.40650638 199.89331658 18.40862465 204.41561699 C18.41052323 209.75177198 18.40228435 215.08782277 18.38656425 220.42395401 C18.3823605 222.37004859 18.38144411 224.31615381 18.38425446 226.2622509 C18.40925929 246.69285046 18.15579054 268.3540285 3.87109375 284.51171875 C-4.88425732 293.1211473 -16.14109424 299.43559531 -27.89453125 302.984375 C-28.49402588 303.18836914 -29.09352051 303.39236328 -29.71118164 303.60253906 C-43.79992332 308.24751352 -57.71129136 308.43320898 -72.39453125 308.359375 C-73.34869934 308.35496399 -74.30286743 308.35055298 -75.28594971 308.3460083 C-105.81081169 308.13844526 -105.81081169 308.13844526 -116.76953125 304.921875 C-117.51638184 304.70853516 -118.26323242 304.49519531 -119.03271484 304.27539062 C-127.15141498 301.81632009 -134.5001898 298.0895384 -141.89453125 293.984375 C-142.72855469 293.5409375 -143.56257812 293.0975 -144.421875 292.640625 C-151.59962085 288.56267342 -156.71688801 282.00281564 -160.89453125 274.984375 C-160.89453125 274.324375 -160.89453125 273.664375 -160.89453125 272.984375 C-161.55453125 272.654375 -162.21453125 272.324375 -162.89453125 271.984375 C-163.89453125 269.83203125 -163.89453125 269.83203125 -164.89453125 267.046875 C-165.22453125 266.15097656 -165.55453125 265.25507813 -165.89453125 264.33203125 C-168.17534549 256.69664921 -169.23411628 249.14646997 -169.51123047 241.19897461 C-169.54882917 240.22765311 -169.58642788 239.25633162 -169.62516594 238.25557613 C-170.1340715 223.24011627 -170.04022795 208.20799135 -170.02885675 193.1858952 C-170.02627838 188.69529494 -170.02868598 184.20469644 -170.03024292 179.71409607 C-170.03205063 172.1708031 -170.02969713 164.62751998 -170.02490234 157.08422852 C-170.01948032 148.4564597 -170.02121308 139.82871461 -170.02672875 131.20094639 C-170.03132166 123.70704881 -170.03188022 116.21315822 -170.02929008 108.71925968 C-170.02775845 104.28192219 -170.02744462 99.8445957 -170.03082657 95.40725899 C-170.04137456 79.01005426 -170.01875198 62.61025926 -169.62211585 46.21698558 C-169.57545135 44.20670316 -169.54107691 42.19614699 -169.50717354 40.18560886 C-169.10314716 26.10349682 -163.96460646 11.29710263 -153.89453125 0.984375 C-153.23453125 0.984375 -152.57453125 0.984375 -151.89453125 0.984375 C-151.56453125 -0.005625 -151.23453125 -0.995625 -150.89453125 -2.015625 C-114.60007045 -34.59998536 -35.94805495 -31.07068066 0 0 Z M-85.89453125 32.984375 C-88.60428226 38.71823049 -89.33069076 44.33449863 -89.26875305 50.59887695 C-89.27272746 51.41692716 -89.27670186 52.23497736 -89.28079671 53.07781696 C-89.29034803 55.79294536 -89.2786454 58.50754327 -89.2668457 61.22265625 C-89.26927603 63.17980136 -89.27299769 65.13694523 -89.27790833 67.09408569 C-89.28728785 72.39157549 -89.27791655 77.68887957 -89.2645762 82.98635483 C-89.25323064 88.53948736 -89.25737161 94.09261116 -89.25932312 99.64575195 C-89.26020511 108.96992005 -89.24914549 118.29401531 -89.23071289 127.61816406 C-89.20954677 138.38648461 -89.20603599 149.15469849 -89.21227485 159.92303562 C-89.21797664 170.29687974 -89.21231322 180.67068643 -89.2011013 191.04452515 C-89.19646613 195.45259292 -89.19557678 199.86063773 -89.19768715 204.26870728 C-89.19957578 209.46276826 -89.19142194 214.65672124 -89.17562675 219.8507576 C-89.17139738 221.75302305 -89.17052425 223.65529949 -89.17331696 225.5575676 C-89.17655918 228.16178652 -89.16740593 230.76568686 -89.15522766 233.36987305 C-89.15900698 234.11570806 -89.16278631 234.86154306 -89.16668016 235.62997913 C-89.11309435 242.14466757 -88.60135271 248.5747447 -84.76953125 253.984375 C-81.1128648 256.52814297 -78.32651156 257.27871904 -73.89453125 256.984375 C-70.3132132 255.86888249 -67.8069926 254.80559022 -65.01953125 252.296875 C-62.27353505 246.65232725 -62.74706454 239.53878525 -62.75408936 233.36277771 C-62.75111823 232.53192014 -62.74814711 231.70106258 -62.74508595 230.84502751 C-62.7364637 228.08083799 -62.73489627 225.3166921 -62.73339844 222.55249023 C-62.72876591 220.56269235 -62.72374067 218.57289535 -62.71835327 216.58309937 C-62.70527475 211.19277946 -62.69879397 205.80247198 -62.69434261 200.4121387 C-62.69140635 197.04308389 -62.68730065 193.67403244 -62.68283844 190.30497932 C-62.66917952 179.75922297 -62.65950331 169.21347435 -62.65563655 158.66770977 C-62.65115055 146.50137205 -62.63357077 134.33514638 -62.60463595 122.16884273 C-62.58302792 112.75633337 -62.57293284 103.34385558 -62.57159543 93.93132168 C-62.57054738 88.31241576 -62.56463856 82.69361542 -62.54677582 77.07473564 C-62.53030897 71.79285914 -62.52813293 66.51116776 -62.53691483 61.22927475 C-62.53768576 59.29229677 -62.53333501 57.35530888 -62.52345657 55.41835594 C-62.51075084 52.77167963 -62.51660619 50.12566054 -62.52703857 47.47898865 C-62.51898217 46.71497299 -62.51092577 45.95095734 -62.50262523 45.16378969 C-62.54949764 40.07005963 -63.4895448 36.50221081 -65.89453125 31.984375 C-69.74139154 29.21105712 -73.28222943 28.41700914 -77.9375 28.6484375 C-81.49007932 29.2582615 -83.30090182 30.51137949 -85.89453125 32.984375 Z " fill="#008DD2" transform="translate(1070.89453125,99.015625)"/>
<path d="M0 0 C0.74446381 0.00359528 1.48892761 0.00719055 2.25595093 0.01089478 C3.0363826 0.01074875 3.81681427 0.01060272 4.62089539 0.01045227 C7.21273534 0.01115158 9.80450432 0.01894481 12.39633179 0.02676392 C14.18852194 0.02862803 15.9807126 0.03005196 17.77290344 0.03105164 C22.49938351 0.03487733 27.22583305 0.04470805 31.95230103 0.05575562 C36.77153104 0.06596863 41.59076596 0.07054902 46.41000366 0.07559204 C55.87290773 0.08633027 65.3357891 0.10340731 74.79867554 0.12442017 C74.82153961 50.93763913 74.83917259 101.75085759 74.84974087 152.56408068 C74.85099165 158.55628044 74.85228596 164.54848019 74.85360718 170.54067993 C74.85386949 171.73367292 74.8541318 172.9266659 74.85440206 174.15581018 C74.85875926 193.49975008 74.86664708 212.84368702 74.87582833 232.18762516 C74.88516347 252.02047744 74.89073085 271.85332817 74.89276403 291.68618256 C74.89413955 303.93465355 74.89849169 316.18311618 74.906592 328.4315846 C74.91185774 336.8186125 74.91348023 345.20563605 74.91217691 353.59266549 C74.91153326 358.43925783 74.91255408 363.28583553 74.91788101 368.13242531 C74.92271411 372.56178107 74.92301478 376.9911122 74.91957443 381.42046905 C74.91914865 383.03016714 74.92044514 384.63986671 74.92355872 386.24956184 C74.92752133 388.42308598 74.9254398 390.59651899 74.92172337 392.77004147 C74.92210309 393.98172904 74.92248281 395.19341661 74.92287403 396.44182199 C74.79867554 399.12442017 74.79867554 399.12442017 73.79867554 400.12442017 C71.33423497 400.21942565 68.89792927 400.25000002 66.43319702 400.23794556 C65.66251892 400.23809158 64.89184082 400.23823761 64.09780884 400.23838806 C61.53843415 400.23768877 58.97913133 400.22989562 56.41976929 400.22207642 C54.64999939 400.22021229 52.88022897 400.21878836 51.11045837 400.2177887 C46.44316188 400.21396305 41.7758963 400.20413237 37.10861206 400.19308472 C32.34970518 400.1828716 27.59079333 400.17829129 22.83187866 400.17324829 C13.48746401 400.16251014 4.14307234 400.14543316 -5.20132446 400.12442017 C-6.62638675 397.2742956 -6.32673595 394.86915356 -6.3271656 391.68102169 C-6.32861904 391.00872925 -6.33007249 390.3364368 -6.33156997 389.64377186 C-6.33524793 387.36882069 -6.33173528 385.09393577 -6.32830811 382.81898499 C-6.32945921 381.18042547 -6.33104667 379.54186621 -6.33303535 377.9033075 C-6.33723005 373.38332506 -6.33513735 368.86336359 -6.33204913 364.34338105 C-6.32979584 359.4755928 -6.33327428 354.60780827 -6.33602905 349.74002075 C-6.3404864 340.1974549 -6.33951046 330.65489689 -6.33661641 321.11233073 C-6.33436238 313.36066899 -6.33404986 305.60900946 -6.33514023 297.85734749 C-6.33529346 296.75608878 -6.33544669 295.65483007 -6.33560457 294.52019988 C-6.33592428 292.28335968 -6.33624849 290.04651948 -6.33657716 287.80967928 C-6.33943182 266.81251638 -6.33614509 245.81535783 -6.3307768 224.81819565 C-6.32630815 206.78102677 -6.32708522 188.74386432 -6.33169556 170.70669556 C-6.3370405 149.78554636 -6.33915778 128.86440098 -6.33608329 107.94325119 C-6.33576473 105.71472649 -6.33545036 103.48620178 -6.33514023 101.25767708 C-6.33498595 100.16105599 -6.33483168 99.0644349 -6.33467273 97.93458287 C-6.33380738 90.18698801 -6.33527082 82.43939556 -6.33761978 74.69180107 C-6.34041707 65.25769363 -6.33968101 55.82359451 -6.33433904 46.38948803 C-6.33170115 41.57123659 -6.33069843 36.75299905 -6.33398819 31.9347477 C-6.33694934 27.53137571 -6.33536141 23.12803063 -6.33001064 18.72466112 C-6.32888568 17.12444478 -6.32947936 15.52422621 -6.33188643 13.92401128 C-6.33488942 11.76330017 -6.33184699 9.60268352 -6.3271656 7.4419775 C-6.32700325 6.2374496 -6.3268409 5.03292169 -6.32667363 3.79189295 C-6.10764937 -0.8690177 -4.16469529 0.00848777 0 0 Z " fill="#008DD2" transform="translate(812.2013244628906,2.875579833984375)"/>
<path d="M0 0 C26.73 0 53.46 0 81 0 C81 106.59 81 213.18 81 323 C75.06 323.33 69.12 323.66 63 324 C60.69 324.33 58.38 324.66 56 325 C54.30483176 325.08225575 52.60731819 325.12773993 50.91015625 325.12939453 C49.97228271 325.13254669 49.03440918 325.13569885 48.06811523 325.13894653 C47.07626221 325.1369223 46.08440918 325.13489807 45.0625 325.1328125 C44.02359619 325.13376923 42.98469238 325.13472595 41.91430664 325.13571167 C39.72574808 325.13638979 37.53718747 325.13456126 35.34863281 325.13037109 C32.01102147 325.12501768 28.67354469 325.13032863 25.3359375 325.13671875 C23.2031247 325.1360579 21.07031199 325.13477661 18.9375 325.1328125 C17.94564697 325.13483673 16.95379395 325.13686096 15.93188477 325.13894653 C10.84589548 325.1218527 6.01249617 324.87510119 1 324 C0.06829895 318.46805883 -0.15419762 313.12433366 -0.16494751 307.52033997 C-0.17059105 306.58384587 -0.1762346 305.64735178 -0.18204916 304.68247908 C-0.19971199 301.5511012 -0.21045462 298.4197388 -0.22119141 295.28833008 C-0.23241694 293.03625287 -0.24404961 290.78417766 -0.25605774 288.53210449 C-0.28742329 282.39746133 -0.31256111 276.26280723 -0.3362546 270.1281302 C-0.35679523 264.95053881 -0.38031285 259.77296259 -0.40379179 254.59538382 C-0.46270287 241.58653031 -0.51559128 228.57766097 -0.5657609 215.56877127 C-0.60610558 205.15088049 -0.65241693 194.7330308 -0.703125 184.31518555 C-1.17783618 86.48847316 -1.17783618 86.48847316 -0.79980469 51.24365234 C-0.79051516 50.37741029 -0.78122563 49.51116824 -0.77165461 48.61867642 C-0.59067864 32.41113034 -0.2808996 16.20622975 0 0 Z " fill="#302355" transform="translate(1519,79)"/>
<path d="M0 0 C0.81019592 -0.00249756 1.62039185 -0.00499512 2.45513916 -0.00756836 C4.78393774 -0.01348878 7.11260606 -0.01196725 9.44140625 -0.0078125 C10.45677711 -0.01078842 10.45677711 -0.01078842 11.49266052 -0.01382446 C16.59788405 0.01055884 21.28610811 0.55262312 26.4375 1.125 C26.4375 20.925 26.4375 40.725 26.4375 61.125 C22.13823794 61.98485241 18.31880364 62.26132675 13.98510742 62.23852539 C12.88673553 62.23874443 12.88673553 62.23874443 11.76617432 62.2389679 C9.35840845 62.23827413 6.95072102 62.23050692 4.54296875 62.22265625 C2.86859682 62.22079017 1.19422435 62.21936716 -0.48014832 62.21836853 C-4.87777221 62.21455835 -9.27536284 62.2047409 -13.67297363 62.19366455 C-18.16413931 62.18341816 -22.65531037 62.178864 -27.14648438 62.17382812 C-35.95183814 62.16311726 -44.75716493 62.14605888 -53.5625 62.125 C-54.61361609 58.97165174 -54.68320472 56.76987717 -54.67602539 53.46020508 C-54.67594986 52.29922806 -54.67587433 51.13825104 -54.67579651 49.9420929 C-54.67063522 48.68889755 -54.66547394 47.43570221 -54.66015625 46.14453125 C-54.6587413 44.86140549 -54.65732635 43.57827972 -54.65586853 42.25627136 C-54.65205405 38.84829759 -54.64223291 35.44036657 -54.63116455 32.03240967 C-54.62092743 28.55351337 -54.61636598 25.07461015 -54.61132812 21.59570312 C-54.60060967 14.77211788 -54.58354609 7.94856099 -54.5625 1.125 C-36.37466068 0.4695341 -18.20062596 0.01961226 0 0 Z " fill="#312355" transform="translate(1573.5625,1.875)"/>
<path d="M0 0 C0.81019592 -0.00249756 1.62039185 -0.00499512 2.45513916 -0.00756836 C4.78393774 -0.01348878 7.11260606 -0.01196725 9.44140625 -0.0078125 C10.45677711 -0.01078842 10.45677711 -0.01078842 11.49266052 -0.01382446 C16.59788405 0.01055884 21.28610811 0.55262312 26.4375 1.125 C26.4375 20.925 26.4375 40.725 26.4375 61.125 C22.13823794 61.98485241 18.31880364 62.26132675 13.98510742 62.23852539 C12.88673553 62.23874443 12.88673553 62.23874443 11.76617432 62.2389679 C9.35840845 62.23827413 6.95072102 62.23050692 4.54296875 62.22265625 C2.86859682 62.22079017 1.19422435 62.21936716 -0.48014832 62.21836853 C-4.87777221 62.21455835 -9.27536284 62.2047409 -13.67297363 62.19366455 C-18.16413931 62.18341816 -22.65531037 62.178864 -27.14648438 62.17382812 C-35.95183814 62.16311726 -44.75716493 62.14605888 -53.5625 62.125 C-53.5625 61.135 -53.5625 60.145 -53.5625 59.125 C-27.4925 59.125 -1.4225 59.125 25.4375 59.125 C25.4375 40.315 25.4375 21.505 25.4375 2.125 C-0.9625 2.125 -27.3625 2.125 -54.5625 2.125 C-54.5625 1.795 -54.5625 1.465 -54.5625 1.125 C-36.37515036 0.46197465 -18.2002497 0.01961186 0 0 Z " fill="#6787AB" transform="translate(1573.5625,1.875)"/>
<path d="" fill="#1C5E99" transform="translate(0,0)"/>
<path d="" fill="#1C5E99" transform="translate(0,0)"/>
<path d="" fill="#1C5E99" transform="translate(0,0)"/>
</svg>
